<svg width="120" height="50" viewBox="0 0 120 50" fill="none" xmlns="http://www.w3.org/2000/svg">
<path d="M31.8653 12.4411C31.5412 13.054 31.1608 13.6106 30.724 14.1178C30.2802 14.625 29.7659 15.0618 29.1742 15.4281C28.5824 15.7945 27.9132 16.0833 27.1664 16.2946C26.4197 16.506 25.5884 16.6117 24.6796 16.6117C23.4749 16.6117 22.3689 16.4074 21.3615 15.9988C20.3541 15.5902 19.4805 15.0195 18.7479 14.2869C18.0081 13.5472 17.4375 12.6736 17.036 11.6592C16.6274 10.6447 16.4231 9.53163 16.4231 8.33401C16.4231 7.13639 16.6274 5.99513 17.036 4.98068C17.4446 3.96623 18.0152 3.08563 18.7479 2.35297C19.4876 1.61326 20.3541 1.04263 21.3615 0.641078C22.3689 0.232479 23.4749 0.0281792 24.6796 0.0281792C26.4267 0.0281792 27.8357 0.331106 28.9206 0.929915C30.0055 1.52872 30.8649 2.41637 31.5131 3.58581L28.0611 6.78415C27.3989 5.27656 26.314 4.52277 24.8134 4.52277C24.271 4.52277 23.7849 4.6214 23.3552 4.81161C22.9254 5.00886 22.545 5.27656 22.228 5.61471C21.9039 5.95287 21.6574 6.35442 21.4883 6.81938C21.3192 7.28433 21.2347 7.79156 21.2347 8.32697C21.2347 8.86237 21.3192 9.3696 21.4883 9.82751C21.6574 10.2854 21.8969 10.6799 22.2139 11.0181C22.5239 11.3562 22.9043 11.6239 23.3411 11.8212C23.7778 12.0184 24.271 12.11 24.8134 12.11C25.7434 12.11 26.4901 11.8916 27.0466 11.4619C27.6032 11.0322 28.0118 10.4897 28.2654 9.84865L31.8723 12.4411H31.8653ZM19.8257 8.27765C19.8257 7.98882 19.7271 7.75634 19.5369 7.58022C19.3396 7.4041 19.1071 7.31251 18.8394 7.31251C18.5506 7.31251 18.3181 7.4041 18.142 7.58022C17.9659 7.75634 17.8743 7.98882 17.8743 8.27765C17.8743 8.54535 17.9659 8.78488 18.142 8.97509C18.3181 9.17234 18.5506 9.26393 18.8394 9.26393C19.1071 9.26393 19.3396 9.1653 19.5369 8.97509C19.7341 8.77783 19.8257 8.54535 19.8257 8.27765ZM20.2061 6.06558C20.2061 5.77674 20.1075 5.54427 19.9173 5.35406C19.72 5.17089 19.4876 5.07226 19.2199 5.07226C18.9522 5.07226 18.7197 5.16385 18.5365 5.35406C18.3463 5.54427 18.2547 5.77674 18.2547 6.06558C18.2547 6.31919 18.3533 6.54463 18.5436 6.74188C18.7408 6.93914 18.9592 7.03072 19.2199 7.03072C19.4876 7.03072 19.72 6.93914 19.9173 6.74893C20.1145 6.56576 20.2061 6.33328 20.2061 6.06558ZM20.2061 10.5884C20.2061 10.2995 20.1075 10.06 19.9173 9.87682C19.72 9.69366 19.4876 9.59503 19.2199 9.59503C18.9522 9.59503 18.7197 9.68661 18.5365 9.87682C18.3463 10.067 18.2547 10.2995 18.2547 10.5884C18.2547 10.842 18.3533 11.0674 18.5436 11.2717C18.7408 11.476 18.9592 11.5746 19.2199 11.5746C19.4876 11.5746 19.72 11.476 19.9173 11.2858C20.1145 11.0885 20.2061 10.8561 20.2061 10.5884ZM21.4531 4.18462C21.4531 3.91691 21.3544 3.68444 21.1642 3.48718C20.967 3.28993 20.7345 3.19834 20.4668 3.19834C20.1991 3.19834 19.9596 3.29697 19.7694 3.48718C19.5721 3.68444 19.4805 3.91691 19.4805 4.18462C19.4805 4.45232 19.5791 4.69184 19.7694 4.88205C19.9666 5.07931 20.1991 5.17089 20.4668 5.17089C20.7204 5.17089 20.9458 5.07226 21.1501 4.88205C21.3544 4.6848 21.4531 4.45232 21.4531 4.18462ZM20.5161 13.5049C20.7697 13.5049 20.9951 13.4063 21.1924 13.202C21.3897 12.9977 21.4812 12.7722 21.4812 12.5186C21.4812 12.2509 21.3897 12.0184 21.1994 11.8353C21.0092 11.6521 20.7838 11.5535 20.5161 11.5535C20.2484 11.5535 20.0089 11.6451 19.8187 11.8353C19.6214 12.0184 19.5298 12.2509 19.5298 12.5186C19.5298 12.7863 19.6285 13.0259 19.8187 13.2161C20.0159 13.4133 20.2484 13.5049 20.5161 13.5049ZM23.3129 2.7827C23.3129 2.515 23.2143 2.28252 23.0241 2.09935C22.8268 1.91619 22.5943 1.81756 22.3266 1.81756C22.0378 1.81756 21.8053 1.90914 21.6292 2.09935C21.4531 2.28252 21.3615 2.515 21.3615 2.7827C21.3615 3.0504 21.4531 3.28993 21.6292 3.48014C21.8053 3.67739 22.0378 3.76897 22.3266 3.76897C22.5802 3.76897 22.8127 3.67035 23.01 3.46605C23.2143 3.26175 23.3129 3.03631 23.3129 2.7827ZM23.3622 13.829C23.3622 13.5613 23.2636 13.3217 23.0734 13.1315C22.8761 12.9343 22.6436 12.8427 22.3759 12.8427C22.0871 12.8427 21.8476 12.9413 21.6644 13.1315C21.4812 13.3288 21.3826 13.5613 21.3826 13.829C21.3826 14.0967 21.4742 14.3291 21.6644 14.5123C21.8476 14.7025 22.0871 14.7941 22.3759 14.7941C22.6295 14.7941 22.862 14.7025 23.0593 14.5123C23.2636 14.3291 23.3622 14.0967 23.3622 13.829ZM25.5954 2.23321C25.5954 1.9655 25.5038 1.73302 25.3136 1.54986C25.1305 1.35965 24.8909 1.26807 24.6021 1.26807C24.3485 1.26807 24.123 1.36669 23.9187 1.5569C23.7144 1.75416 23.6158 1.97255 23.6158 2.22616C23.6158 2.515 23.7144 2.75452 23.9047 2.93769C24.1019 3.12085 24.3344 3.21948 24.6021 3.21948C24.8909 3.21948 25.1234 3.1279 25.3136 2.93769C25.4968 2.75452 25.5954 2.515 25.5954 2.22616V2.23321ZM25.5954 14.3714C25.5954 14.1037 25.5038 13.8712 25.3136 13.6881C25.1305 13.4979 24.8909 13.4063 24.6021 13.4063C24.3344 13.4063 24.0949 13.4979 23.9047 13.6881C23.7074 13.8712 23.6158 14.1037 23.6158 14.3714C23.6158 14.6391 23.7144 14.8786 23.9047 15.0689C24.1019 15.2661 24.3344 15.3577 24.6021 15.3577C24.8909 15.3577 25.1234 15.2591 25.3136 15.0689C25.4968 14.8716 25.5954 14.6391 25.5954 14.3714ZM27.8779 2.66294C27.8779 2.39524 27.7863 2.16276 27.5961 1.97959C27.413 1.79643 27.1734 1.6978 26.8846 1.6978C26.6169 1.6978 26.3774 1.78938 26.1872 1.97959C25.9899 2.1698 25.8983 2.39524 25.8983 2.66294C25.8983 2.93064 25.997 3.17016 26.1872 3.36037C26.3844 3.55763 26.6169 3.64921 26.8846 3.64921C27.1523 3.64921 27.3918 3.55058 27.582 3.34629C27.7793 3.14199 27.8709 2.91655 27.8709 2.66294H27.8779ZM26.941 14.9068C27.2087 14.9068 27.4411 14.8082 27.6243 14.618C27.8075 14.4207 27.9061 14.1882 27.9061 13.9205C27.9061 13.6528 27.8145 13.4204 27.6384 13.2231C27.4623 13.0259 27.2298 12.9343 26.941 12.9343C26.6733 12.9343 26.4337 13.0329 26.2435 13.2231C26.0463 13.4204 25.9547 13.6528 25.9547 13.9205C25.9547 14.1882 26.0533 14.4278 26.2435 14.618C26.4408 14.8152 26.6733 14.9068 26.941 14.9068ZM29.8082 3.95918C29.8082 3.69148 29.7096 3.459 29.5194 3.27584C29.3221 3.09267 29.0896 2.99404 28.8219 2.99404C28.5542 2.99404 28.3217 3.08563 28.1386 3.27584C27.9554 3.46605 27.8568 3.69148 27.8568 3.95918C27.8568 4.22689 27.9484 4.46641 28.1386 4.65662C28.3217 4.85387 28.5542 4.94546 28.8219 4.94546C29.0896 4.94546 29.3221 4.84683 29.5194 4.65662C29.7166 4.45937 29.8082 4.22689 29.8082 3.95918ZM29.8857 12.5679C29.8857 12.3002 29.7871 12.0678 29.5969 11.8705C29.3996 11.6733 29.1671 11.5817 28.8994 11.5817C28.6317 11.5817 28.3922 11.6803 28.202 11.8705C28.0047 12.0678 27.9132 12.3002 27.9132 12.5679C27.9132 12.8356 28.0118 13.0752 28.202 13.2654C28.3992 13.4626 28.6317 13.5542 28.8994 13.5542C29.153 13.5542 29.3785 13.4556 29.5828 13.2513C29.7871 13.047 29.8857 12.8216 29.8857 12.5679ZM43.5738 16.3017L43.0665 14.625H38.0154L37.48 16.3017H32.2246L37.7618 0.324061H43.2497L48.8151 16.3017H43.5808H43.5738ZM36.2331 14.4982C36.2331 14.2446 36.1344 14.0192 35.9301 13.8219C35.7258 13.6247 35.5004 13.5331 35.2468 13.5331C34.958 13.5331 34.7255 13.6247 34.5494 13.8149C34.3732 14.0051 34.2817 14.2305 34.2817 14.4982C34.2817 14.7871 34.3732 15.0266 34.5494 15.2097C34.7255 15.4 34.958 15.4915 35.2468 15.4915C35.5145 15.4915 35.747 15.4 35.9442 15.2097C36.1415 15.0266 36.2331 14.7871 36.2331 14.4982ZM36.9446 12.4904C36.9446 12.2227 36.846 11.9832 36.6417 11.793C36.4374 11.5958 36.2119 11.5042 35.9583 11.5042C35.6906 11.5042 35.4511 11.5958 35.2609 11.786C35.0636 11.9762 34.9721 12.2087 34.9721 12.4975C34.9721 12.7652 35.0707 12.9977 35.2609 13.1808C35.4581 13.3711 35.6906 13.4626 35.9583 13.4626C36.226 13.4626 36.4585 13.3711 36.6558 13.1808C36.853 12.9977 36.9446 12.7652 36.9446 12.4975V12.4904ZM37.6279 10.4334C37.6279 10.1798 37.5293 9.94727 37.3391 9.75002C37.1419 9.54572 36.9094 9.44709 36.6417 9.44709C36.374 9.44709 36.1415 9.54572 35.9583 9.73593C35.7752 9.93318 35.6765 10.1657 35.6765 10.4334C35.6765 10.7011 35.7681 10.9406 35.9583 11.1308C36.1415 11.3281 36.374 11.4196 36.6417 11.4196C36.9094 11.4196 37.1419 11.321 37.3391 11.1308C37.5364 10.9335 37.6279 10.7011 37.6279 10.4334ZM38.3395 8.37628C38.3395 8.12267 38.2408 7.89723 38.0506 7.69293C37.8534 7.48863 37.6209 7.39001 37.3532 7.39001C37.0855 7.39001 36.853 7.48863 36.6699 7.67884C36.4867 7.8761 36.3881 8.10858 36.3881 8.37628C36.3881 8.64398 36.4796 8.88351 36.6699 9.07372C36.853 9.27097 37.0855 9.36255 37.3532 9.36255C37.6209 9.36255 37.8534 9.26393 38.0506 9.07372C38.2479 8.87646 38.3395 8.64398 38.3395 8.37628ZM39.051 6.34737C39.051 6.09376 38.9524 5.86128 38.7622 5.66403C38.5649 5.45973 38.3324 5.3611 38.0647 5.3611C37.797 5.3611 37.5645 5.45973 37.3814 5.64994C37.1912 5.84719 37.0996 6.07967 37.0996 6.34737C37.0996 6.61508 37.1912 6.8546 37.3814 7.04481C37.5645 7.24207 37.797 7.33365 38.0647 7.33365C38.3324 7.33365 38.5649 7.23502 38.7622 7.04481C38.9594 6.84756 39.051 6.61508 39.051 6.34737ZM39.1496 12.5679C39.1496 12.3002 39.051 12.0678 38.8608 11.8705C38.6635 11.6733 38.4311 11.5817 38.1634 11.5817C37.8956 11.5817 37.6632 11.6803 37.48 11.8705C37.2898 12.0678 37.1982 12.3002 37.1982 12.5679C37.1982 12.8356 37.2898 13.0752 37.48 13.2654C37.6632 13.4626 37.8956 13.5542 38.1634 13.5542C38.4311 13.5542 38.6635 13.4626 38.8608 13.2724C39.058 13.0893 39.1496 12.8497 39.1496 12.5609V12.5679ZM39.7343 4.29029C39.7343 4.03668 39.6357 3.81124 39.4455 3.60694C39.2483 3.40264 39.0158 3.30402 38.7481 3.30402C38.4804 3.30402 38.2479 3.40264 38.0647 3.59285C37.8816 3.79011 37.7829 4.02259 37.7829 4.29029C37.7829 4.55799 37.8745 4.79752 38.0647 4.98773C38.2479 5.18498 38.4804 5.27656 38.7481 5.27656C39.0158 5.27656 39.2553 5.17794 39.4455 4.98773C39.6428 4.79047 39.7343 4.55799 39.7343 4.29029ZM39.4314 3.24766C39.6991 3.24766 39.9316 3.15608 40.1148 2.96587C40.2979 2.7827 40.3966 2.54318 40.3966 2.25434C40.3966 2.00073 40.2979 1.77529 40.1077 1.57804C39.9105 1.38078 39.685 1.2892 39.4314 1.2892C39.1426 1.2892 38.9031 1.38078 38.7199 1.57099C38.5367 1.7612 38.4381 1.98664 38.4381 2.25434C38.4381 2.54318 38.5297 2.7827 38.7199 2.96587C38.9031 3.15608 39.1426 3.24766 39.4314 3.24766ZM40.4952 5.98809L39.1496 10.6377H41.8689L40.4952 5.98809ZM41.4321 12.5679C41.4321 12.3002 41.3406 12.0678 41.1503 11.8705C40.9672 11.6733 40.7277 11.5817 40.4388 11.5817C40.1711 11.5817 39.9316 11.6803 39.7414 11.8705C39.5441 12.0678 39.4526 12.3002 39.4526 12.5679C39.4526 12.8356 39.5512 13.0752 39.7555 13.2654C39.9598 13.4626 40.1852 13.5542 40.4388 13.5542C40.7277 13.5542 40.9601 13.4626 41.1503 13.2724C41.3335 13.0893 41.4321 12.8497 41.4321 12.5609V12.5679ZM41.5871 3.24766C41.8548 3.24766 42.0873 3.15608 42.2705 2.96587C42.4536 2.7827 42.5523 2.54318 42.5523 2.25434C42.5523 2.00073 42.4536 1.77529 42.2634 1.57804C42.0662 1.38078 41.8478 1.2892 41.5871 1.2892C41.3194 1.2892 41.0799 1.38078 40.8897 1.57099C40.6924 1.7612 40.6009 1.98664 40.6009 2.25434C40.6009 2.54318 40.6995 2.7827 40.8897 2.96587C41.0869 3.15608 41.3194 3.24766 41.5871 3.24766ZM43.137 4.31142C43.137 4.04372 43.0384 3.8042 42.8481 3.61399C42.6509 3.41673 42.4184 3.32515 42.1507 3.32515C41.883 3.32515 41.6505 3.42378 41.4674 3.61399C41.2842 3.81124 41.1856 4.04372 41.1856 4.31142C41.1856 4.57913 41.2772 4.81865 41.4533 5.00886C41.6294 5.20612 41.8619 5.2977 42.1507 5.2977C42.4184 5.2977 42.6509 5.19907 42.8481 5.00886C43.0454 4.81161 43.137 4.57913 43.137 4.31142ZM42.8059 13.5542C43.0736 13.5542 43.3061 13.4626 43.4892 13.2724C43.6724 13.0893 43.771 12.8497 43.771 12.5609C43.771 12.2932 43.6794 12.0607 43.4892 11.8635C43.3061 11.6662 43.0736 11.5746 42.8059 11.5746C42.5382 11.5746 42.2987 11.6733 42.1084 11.8635C41.9112 12.0607 41.8196 12.2932 41.8196 12.5609C41.8196 12.8286 41.9182 13.0681 42.1084 13.2583C42.3057 13.4556 42.5382 13.5472 42.8059 13.5472V13.5542ZM43.8485 6.36851C43.8485 6.07967 43.7499 5.84719 43.5597 5.65698C43.3624 5.47382 43.1299 5.37519 42.8622 5.37519C42.5945 5.37519 42.355 5.47382 42.1648 5.66403C41.9675 5.86128 41.876 6.09376 41.876 6.36146C41.876 6.62917 41.9675 6.86165 42.1578 7.04481C42.3409 7.23502 42.5804 7.3266 42.8693 7.3266C43.137 7.3266 43.3695 7.23502 43.5667 7.04481C43.764 6.86165 43.8556 6.62917 43.8556 6.36146L43.8485 6.36851ZM43.5667 9.36255C43.8344 9.36255 44.0669 9.27097 44.2501 9.08076C44.4332 8.89055 44.5319 8.65807 44.5319 8.36924C44.5319 8.10153 44.4403 7.86905 44.2501 7.68589C44.0669 7.49568 43.8344 7.4041 43.5667 7.4041C43.299 7.4041 43.0595 7.49568 42.8693 7.68589C42.672 7.86905 42.5804 8.10153 42.5804 8.36924C42.5804 8.65807 42.6791 8.8976 42.8693 9.08076C43.0665 9.26393 43.299 9.36255 43.5667 9.36255ZM45.2434 10.4334C45.2434 10.1798 45.1448 9.94727 44.9545 9.75002C44.7573 9.54572 44.5248 9.44709 44.2571 9.44709C43.9894 9.44709 43.7569 9.54572 43.5738 9.73593C43.3836 9.93318 43.292 10.1657 43.292 10.4334C43.292 10.7011 43.3836 10.9406 43.5738 11.1308C43.7569 11.3281 43.9894 11.4196 44.2571 11.4196C44.5248 11.4196 44.7573 11.321 44.9545 11.1308C45.1518 10.9335 45.2434 10.7011 45.2434 10.4334ZM45.9549 12.4904C45.9549 12.2227 45.8563 11.9832 45.652 11.793C45.4477 11.5958 45.2223 11.5042 44.9686 11.5042C44.7009 11.5042 44.4685 11.5958 44.2853 11.786C44.1021 11.9762 44.0035 12.2087 44.0035 12.4975C44.0035 12.7652 44.0951 12.9977 44.2853 13.1808C44.4685 13.3711 44.7009 13.4626 44.9686 13.4626C45.2363 13.4626 45.4688 13.3711 45.6661 13.1808C45.8633 12.9977 45.9549 12.7652 45.9549 12.4975V12.4904ZM46.6383 14.4982C46.6383 14.2305 46.5467 13.998 46.3565 13.8149C46.1663 13.6317 45.9338 13.5331 45.6449 13.5331C45.3913 13.5331 45.1659 13.6317 44.9616 13.8219C44.7573 14.0192 44.6587 14.2446 44.6587 14.4982C44.6587 14.7871 44.7573 15.0266 44.9475 15.2097C45.1448 15.4 45.3772 15.4915 45.6449 15.4915C45.9338 15.4915 46.1663 15.4 46.3565 15.2097C46.5396 15.0266 46.6383 14.7871 46.6383 14.4982ZM56.5926 5.40337C56.5221 5.02999 56.4024 4.69184 56.2262 4.37483C56.0501 4.06486 55.7331 3.90283 55.2752 3.90283C55.0075 3.90283 54.775 3.97327 54.5919 4.12121C54.4087 4.26916 54.3101 4.46641 54.3101 4.72002C54.3101 4.95955 54.3805 5.14976 54.5284 5.30474C54.6693 5.45973 54.8455 5.58653 55.0498 5.68516C55.2541 5.78379 55.4654 5.87537 55.6979 5.93878C55.9233 6.00922 56.1347 6.06558 56.3178 6.1149C56.8955 6.30511 57.4802 6.51645 58.0861 6.76302C58.6849 7.00959 59.2132 7.3266 59.6712 7.71407C60.2136 8.18607 60.6363 8.72852 60.9392 9.34142C61.2421 9.95432 61.3971 10.5954 61.3971 11.2717C61.3971 12.1523 61.2351 12.9272 60.911 13.5965C60.587 14.2657 60.1502 14.8223 59.5937 15.2591C59.0371 15.7029 58.389 16.034 57.6634 16.2594C56.9378 16.4849 56.1628 16.6046 55.3527 16.6046C54.6905 16.6046 54.0494 16.5271 53.4224 16.3792C52.7954 16.2242 52.2318 15.9847 51.7176 15.6536C51.2103 15.3225 50.7877 14.8998 50.4495 14.3855C50.1114 13.8712 49.893 13.2442 49.7873 12.5186L54.1269 11.1449C54.1269 11.5535 54.2607 11.8635 54.5355 12.0748C54.8032 12.2862 55.1343 12.3918 55.5288 12.3918C55.7965 12.3918 56.0431 12.3355 56.2544 12.2157C56.4658 12.0959 56.5714 11.8846 56.5714 11.5817C56.5714 11.4126 56.501 11.2576 56.3531 11.1238C56.2122 10.9899 56.036 10.8701 55.8317 10.7715C55.6274 10.6729 55.4161 10.5743 55.1836 10.4897C54.9582 10.4052 54.7539 10.3206 54.5848 10.2361C53.9226 9.96841 53.2886 9.7007 52.6686 9.44709C52.0487 9.19348 51.4992 8.8201 51.006 8.32697C50.5834 7.91837 50.2452 7.43228 50.0057 6.86869C49.7591 6.29806 49.6393 5.72039 49.6393 5.12862C49.6393 4.29733 49.7873 3.56467 50.0832 2.93064C50.3791 2.29661 50.7877 1.7612 51.3019 1.33147C51.8162 0.901736 52.415 0.577674 53.0913 0.352241C53.7676 0.133851 54.4862 0.0211344 55.247 0.0211344C55.9092 0.0211344 56.5362 0.0845377 57.1421 0.211344C57.7409 0.338151 58.2904 0.55654 58.7835 0.859467C59.2766 1.16239 59.6923 1.5569 60.0304 2.04299C60.3686 2.52909 60.6081 3.12085 60.742 3.83238L56.5996 5.41041L56.5926 5.40337ZM52.0487 6.0374C52.3375 6.0374 52.57 5.93878 52.7461 5.74857C52.9222 5.55131 53.0138 5.31883 53.0138 5.05113C53.0138 4.78343 52.9222 4.55095 52.7461 4.36778C52.57 4.18462 52.3375 4.08599 52.0487 4.08599C51.781 4.08599 51.5414 4.17757 51.3512 4.36778C51.154 4.55799 51.0624 4.78343 51.0624 5.05113C51.0624 5.31883 51.161 5.55836 51.3512 5.74857C51.5485 5.94582 51.781 6.0374 52.0487 6.0374ZM53.979 2.76157C53.979 2.49386 53.8803 2.26138 53.6901 2.07822C53.4929 1.89505 53.2604 1.79643 52.9927 1.79643C52.725 1.79643 52.4925 1.88801 52.3093 2.07822C52.1262 2.26843 52.0275 2.49386 52.0275 2.76157C52.0275 3.02927 52.1262 3.26879 52.3164 3.459C52.5136 3.65626 52.732 3.74784 52.9927 3.74784C53.2604 3.74784 53.4929 3.64921 53.6901 3.459C53.8874 3.26175 53.979 3.02927 53.979 2.76157ZM54.0071 13.3781C54.0071 13.0893 53.9085 12.8497 53.7183 12.6666C53.521 12.4834 53.2886 12.3848 53.0209 12.3848C52.7532 12.3848 52.5207 12.4834 52.3375 12.6736C52.1543 12.8709 52.0557 13.1033 52.0557 13.3711C52.0557 13.6247 52.1473 13.8501 52.3234 14.0544C52.4995 14.2587 52.725 14.3573 52.9997 14.3573C53.2745 14.3573 53.507 14.2587 53.7112 14.0685C53.9155 13.8712 54.0142 13.6388 54.0142 13.3711L54.0071 13.3781ZM53.2674 8.06631C53.5563 8.06631 53.7887 7.96768 53.9649 7.77747C54.141 7.58022 54.2326 7.34774 54.2326 7.08003C54.2326 6.7912 54.141 6.55872 53.9649 6.36851C53.7887 6.18534 53.5563 6.08672 53.2674 6.08672C52.9997 6.08672 52.7602 6.1783 52.57 6.36851C52.3727 6.55872 52.2812 6.7912 52.2812 7.08003C52.2812 7.34774 52.3798 7.58726 52.57 7.77747C52.7672 7.97473 52.9997 8.06631 53.2674 8.06631ZM55.402 3.01518C55.6697 3.01518 55.9022 2.91655 56.0854 2.72634C56.2685 2.52909 56.3671 2.29661 56.3671 2.02891C56.3671 1.74007 56.2756 1.50759 56.0854 1.31738C55.9022 1.13421 55.6697 1.03559 55.402 1.03559C55.1132 1.03559 54.8736 1.12717 54.6905 1.31738C54.5073 1.50759 54.4087 1.74007 54.4087 2.02891C54.4087 2.28252 54.5073 2.515 54.6975 2.71225C54.8948 2.91655 55.1273 3.01518 55.395 3.01518H55.402ZM55.4795 15.2802C55.7472 15.2802 55.9797 15.1886 56.1628 14.9984C56.346 14.8152 56.4446 14.5757 56.4446 14.2869C56.4446 14.0192 56.346 13.7797 56.1558 13.5894C55.9585 13.3922 55.7261 13.3006 55.4584 13.3006C55.1907 13.3006 54.9511 13.3992 54.7609 13.6035C54.5637 13.8078 54.4721 14.0333 54.4721 14.2869C54.4721 14.5757 54.5707 14.8152 54.7609 14.9984C54.9582 15.1886 55.1977 15.2802 55.4865 15.2802H55.4795ZM55.5288 9.20757C55.7824 9.20757 56.0079 9.10894 56.2051 8.91873C56.4024 8.72148 56.4939 8.489 56.4939 8.22129C56.4939 7.95359 56.4024 7.72111 56.2122 7.53795C56.0219 7.34774 55.7965 7.25616 55.5288 7.25616C55.2611 7.25616 55.0216 7.34774 54.8314 7.53795C54.6341 7.72111 54.5425 7.95359 54.5425 8.22129C54.5425 8.489 54.6412 8.72852 54.8314 8.91873C55.0286 9.11598 55.2611 9.20757 55.5288 9.20757ZM58.6497 9.25688C58.6497 9.00327 58.551 8.77079 58.3608 8.57353C58.1636 8.36924 57.9311 8.27061 57.6634 8.27061C57.3957 8.27061 57.1632 8.36924 56.98 8.55944C56.7969 8.7567 56.6982 8.98918 56.6982 9.25688C56.6982 9.52458 56.7898 9.75706 56.98 9.94023C57.1632 10.1304 57.3957 10.222 57.6634 10.222C57.9311 10.222 58.1636 10.1304 58.3608 9.94023C58.5581 9.75706 58.6497 9.52458 58.6497 9.25688ZM58.7272 2.75452C58.7272 2.48682 58.6356 2.24729 58.4594 2.04299C58.2833 1.8387 58.0579 1.74007 57.7831 1.74007C57.4943 1.74007 57.2548 1.8387 57.0575 2.04299C56.8603 2.24729 56.7687 2.48682 56.7687 2.75452C56.7687 3.02222 56.8673 3.2547 57.0575 3.43787C57.2548 3.62103 57.4873 3.71966 57.755 3.71966C58.0227 3.71966 58.2551 3.62808 58.4383 3.45196C58.6215 3.27584 58.7201 3.04336 58.7201 2.75452H58.7272ZM57.7902 14.5898C58.0579 14.5898 58.2833 14.4912 58.4665 14.301C58.6497 14.1108 58.7342 13.8712 58.7342 13.6035C58.7342 13.3147 58.6426 13.0822 58.4665 12.9061C58.2904 12.73 58.0579 12.6384 57.7691 12.6384C57.5154 12.6384 57.29 12.73 57.0857 12.9202C56.8814 13.1104 56.7828 13.3358 56.7828 13.6035C56.7828 13.8712 56.8814 14.1108 57.0857 14.301C57.29 14.4982 57.5225 14.5898 57.7972 14.5898H57.7902ZM59.8966 11.3421C59.8966 11.0744 59.798 10.8349 59.6078 10.6447C59.4105 10.4475 59.178 10.3559 58.9103 10.3559C58.6426 10.3559 58.4031 10.4545 58.2129 10.6447C58.0156 10.842 57.924 11.0744 57.924 11.3421C57.924 11.6098 58.0227 11.8494 58.2129 12.0396C58.4101 12.2368 58.6426 12.3284 58.9103 12.3284C59.1639 12.3284 59.3894 12.2298 59.5937 12.0255C59.798 11.8212 59.8966 11.5958 59.8966 11.3421ZM62.9963 16.2946V0.324061H67.9981V16.3017H62.9963V16.2946ZM66.399 2.35297C66.399 2.08526 66.3074 1.84574 66.1312 1.65553C65.9551 1.45828 65.7226 1.36669 65.4338 1.36669C65.1661 1.36669 64.9266 1.46532 64.7364 1.65553C64.5391 1.85279 64.4475 2.08526 64.4475 2.35297C64.4475 2.62067 64.5462 2.85315 64.7364 3.03631C64.9336 3.21948 65.1661 3.31811 65.4338 3.31811C65.7226 3.31811 65.9551 3.22652 66.1312 3.03631C66.3074 2.8461 66.399 2.62067 66.399 2.35297ZM65.4338 5.67812C65.7226 5.67812 65.9551 5.58653 66.1312 5.39633C66.3074 5.21316 66.399 4.97364 66.399 4.6848C66.399 4.4171 66.3074 4.17757 66.1312 3.98736C65.9551 3.79011 65.7226 3.69853 65.4338 3.69853C65.1661 3.69853 64.9266 3.79715 64.7364 3.98736C64.5391 4.18462 64.4475 4.4171 64.4475 4.6848C64.4475 4.97364 64.5462 5.21316 64.7364 5.39633C64.9336 5.58653 65.1661 5.67812 65.4338 5.67812ZM65.4338 8.03813C65.7226 8.03813 65.9551 7.9395 66.1312 7.74929C66.3074 7.55204 66.399 7.31956 66.399 7.05186C66.399 6.76302 66.3074 6.53054 66.1312 6.35442C65.9551 6.1783 65.7226 6.08672 65.4338 6.08672C65.1661 6.08672 64.9266 6.1783 64.7364 6.35442C64.5391 6.53054 64.4475 6.76302 64.4475 7.05186C64.4475 7.31956 64.5462 7.55908 64.7364 7.74929C64.9336 7.94655 65.1661 8.03813 65.4338 8.03813ZM66.399 9.41187C66.399 9.14416 66.3074 8.91168 66.1312 8.71443C65.9551 8.51718 65.7226 8.42559 65.4338 8.42559C65.1661 8.42559 64.9266 8.52422 64.7364 8.71443C64.5391 8.91168 64.4475 9.14416 64.4475 9.41187C64.4475 9.67957 64.5462 9.91205 64.7364 10.0952C64.9336 10.2854 65.1661 10.377 65.4338 10.377C65.7226 10.377 65.9551 10.2854 66.1312 10.0952C66.3074 9.91205 66.399 9.67957 66.399 9.41187ZM65.4338 12.737C65.7226 12.737 65.9551 12.6454 66.1312 12.4552C66.3074 12.2721 66.399 12.0325 66.399 11.7437C66.399 11.476 66.3074 11.2365 66.1312 11.0463C65.9551 10.849 65.7226 10.7574 65.4338 10.7574C65.1661 10.7574 64.9266 10.8561 64.7364 11.0463C64.5391 11.2435 64.4475 11.476 64.4475 11.7437C64.4475 12.0325 64.5462 12.2721 64.7364 12.4552C64.9336 12.6454 65.1661 12.737 65.4338 12.737ZM65.4338 15.097C65.7226 15.097 65.9551 14.9984 66.1312 14.8082C66.3074 14.6109 66.399 14.3785 66.399 14.1108C66.399 13.8431 66.3074 13.6106 66.1312 13.4274C65.9551 13.2372 65.7226 13.1456 65.4338 13.1456C65.1661 13.1456 64.9266 13.2372 64.7364 13.4274C64.5391 13.6106 64.4475 13.8431 64.4475 14.1108C64.4475 14.3785 64.5462 14.618 64.7364 14.8082C64.9336 15.0054 65.1661 15.097 65.4338 15.097ZM79.9391 16.2876L74.7823 8.6158V16.2876H69.8791V0.324061H74.8034L79.6291 8.32697V0.324061H84.483V16.3017H79.9391V16.2876ZM73.2817 2.34592C73.2817 2.07822 73.1902 1.8387 73.014 1.64849C72.8379 1.45123 72.6054 1.35965 72.3166 1.35965C72.0489 1.35965 71.8094 1.45828 71.6192 1.64849C71.4219 1.84574 71.3303 2.07822 71.3303 2.34592C71.3303 2.61362 71.4289 2.8461 71.6192 3.02927C71.8164 3.21243 72.0489 3.31106 72.3166 3.31106C72.6054 3.31106 72.8379 3.21948 73.014 3.02927C73.1902 2.83906 73.2817 2.61362 73.2817 2.34592ZM72.3166 5.67107C72.6054 5.67107 72.8379 5.57949 73.014 5.38928C73.1902 5.20612 73.2817 4.96659 73.2817 4.67775C73.2817 4.41005 73.1902 4.17053 73.014 3.98032C72.8379 3.78306 72.6054 3.69148 72.3166 3.69148C72.0489 3.69148 71.8094 3.79011 71.6192 3.98032C71.4289 4.17053 71.3303 4.41005 71.3303 4.67775C71.3303 4.96659 71.4289 5.20612 71.6192 5.38928C71.8164 5.57949 72.0489 5.67107 72.3166 5.67107ZM72.3166 8.03108C72.6054 8.03108 72.8379 7.93246 73.014 7.74225C73.1902 7.54499 73.2817 7.31251 73.2817 7.04481C73.2817 6.75597 73.1902 6.52349 73.014 6.34737C72.8379 6.17125 72.6054 6.07967 72.3166 6.07967C72.0489 6.07967 71.8094 6.17125 71.6192 6.34737C71.4219 6.52349 71.3303 6.75597 71.3303 7.04481C71.3303 7.31251 71.4289 7.55204 71.6192 7.74225C71.8164 7.9395 72.0489 8.03108 72.3166 8.03108ZM73.2817 9.40482C73.2817 9.13712 73.1902 8.90464 73.014 8.70739C72.8379 8.51013 72.6054 8.41855 72.3166 8.41855C72.0489 8.41855 71.8094 8.51718 71.6192 8.70739C71.4219 8.90464 71.3303 9.13712 71.3303 9.40482C71.3303 9.67252 71.4289 9.905 71.6192 10.0882C71.8164 10.2784 72.0489 10.37 72.3166 10.37C72.6054 10.37 72.8379 10.2784 73.014 10.0882C73.1902 9.905 73.2817 9.67252 73.2817 9.40482ZM72.3166 12.73C72.6054 12.73 72.8379 12.6384 73.014 12.4482C73.1902 12.265 73.2817 12.0255 73.2817 11.7367C73.2817 11.469 73.1902 11.2294 73.014 11.0392C72.8379 10.842 72.6054 10.7504 72.3166 10.7504C72.0489 10.7504 71.8094 10.849 71.6192 11.0392C71.4219 11.2365 71.3303 11.469 71.3303 11.7367C71.3303 12.0255 71.4289 12.265 71.6192 12.4482C71.8164 12.6384 72.0489 12.73 72.3166 12.73ZM72.3166 15.09C72.6054 15.09 72.8379 14.9914 73.014 14.8011C73.1902 14.6039 73.2817 14.3714 73.2817 14.1037C73.2817 13.836 73.1902 13.6035 73.014 13.4204C72.8379 13.2302 72.6054 13.1386 72.3166 13.1386C72.0489 13.1386 71.8094 13.2302 71.6192 13.4204C71.4219 13.6035 71.3303 13.836 71.3303 14.1037C71.3303 14.3714 71.4289 14.6109 71.6192 14.8011C71.8164 14.9984 72.0489 15.09 72.3166 15.09ZM74.3455 4.75525C74.6132 4.75525 74.8457 4.65662 75.0288 4.46641C75.212 4.26916 75.3106 4.03668 75.3106 3.76897C75.3106 3.50127 75.2191 3.26879 75.0288 3.07154C74.8386 2.87428 74.6132 2.7827 74.3455 2.7827C74.0778 2.7827 73.8383 2.88133 73.6481 3.07154C73.4508 3.26879 73.3592 3.50127 73.3592 3.76897C73.3592 4.02259 73.4579 4.25507 73.6481 4.45232C73.8453 4.65662 74.0778 4.75525 74.3455 4.75525ZM76.5787 5.94582C76.5787 5.67812 76.4801 5.44564 76.2899 5.26247C76.0926 5.07931 75.8601 4.98068 75.5924 4.98068C75.3247 4.98068 75.0852 5.07226 74.895 5.26247C74.6977 5.45268 74.6062 5.67812 74.6062 5.94582C74.6062 6.21352 74.7048 6.45305 74.895 6.64326C75.0922 6.84051 75.3247 6.93209 75.5924 6.93209C75.8601 6.93209 76.0997 6.83347 76.2899 6.64326C76.4871 6.446 76.5787 6.21352 76.5787 5.94582ZM78.0299 8.12971C78.0299 7.8761 77.9313 7.64362 77.727 7.44636C77.5227 7.24206 77.2973 7.14344 77.0437 7.14344C76.776 7.14344 76.5435 7.24207 76.3603 7.43228C76.1772 7.62953 76.0785 7.86201 76.0785 8.12971C76.0785 8.41855 76.1701 8.65807 76.3603 8.84124C76.5435 9.03145 76.776 9.12303 77.0437 9.12303C77.3114 9.12303 77.5509 9.03145 77.7411 8.84124C77.9384 8.65807 78.0299 8.41855 78.0299 8.12971ZM79.6573 10.5179C79.6573 10.2502 79.5657 10.0177 79.3755 9.83456C79.1923 9.65139 78.9528 9.55276 78.664 9.55276C78.4104 9.55276 78.1849 9.65139 77.9806 9.8416C77.7763 10.0389 77.6777 10.2572 77.6777 10.5179C77.6777 10.8067 77.7763 11.0463 77.9665 11.2294C78.1567 11.4196 78.3963 11.5112 78.664 11.5112C78.9528 11.5112 79.1923 11.4196 79.3755 11.2294C79.5587 11.0392 79.6573 10.8067 79.6573 10.5179ZM81.1085 12.5257C81.1085 12.258 81.0169 12.0255 80.8267 11.8423C80.6365 11.6592 80.404 11.5605 80.1152 11.5605C79.8475 11.5605 79.615 11.6521 79.4319 11.8423C79.2487 12.0325 79.1501 12.258 79.1501 12.5257C79.1501 12.8145 79.2416 13.054 79.4319 13.2372C79.615 13.4274 79.8475 13.519 80.1152 13.519C80.3829 13.519 80.6224 13.4204 80.8126 13.2302C81.0099 13.0329 81.1015 12.8004 81.1015 12.5327L81.1085 12.5257ZM83.1163 2.33888C83.1163 2.07117 83.0247 1.83165 82.8345 1.64144C82.6443 1.44419 82.4118 1.3526 82.123 1.3526C81.8553 1.3526 81.6157 1.45123 81.4255 1.64144C81.2283 1.8387 81.1367 2.07117 81.1367 2.33888C81.1367 2.60658 81.2353 2.83906 81.4255 3.02222C81.6228 3.20539 81.8553 3.30402 82.123 3.30402C82.4118 3.30402 82.6443 3.21243 82.8345 3.02222C83.0177 2.83201 83.1163 2.60658 83.1163 2.33888ZM83.1163 4.67775C83.1163 4.41005 83.0247 4.17053 82.8345 3.98032C82.6443 3.78306 82.4118 3.69148 82.123 3.69148C81.8553 3.69148 81.6157 3.79011 81.4255 3.98032C81.2283 4.17757 81.1367 4.41005 81.1367 4.67775C81.1367 4.96659 81.2353 5.20612 81.4255 5.38928C81.6228 5.57949 81.8553 5.67107 82.123 5.67107C82.4118 5.67107 82.6443 5.57949 82.8345 5.38928C83.0247 5.19907 83.1163 4.96659 83.1163 4.67775ZM83.1163 7.03777C83.1163 6.74893 83.0247 6.51645 82.8345 6.34033C82.6443 6.16421 82.4118 6.07263 82.123 6.07263C81.8553 6.07263 81.6157 6.16421 81.4255 6.34033C81.2283 6.51645 81.1367 6.74893 81.1367 7.03777C81.1367 7.30547 81.2353 7.54499 81.4255 7.7352C81.6228 7.93246 81.8553 8.02404 82.123 8.02404C82.4118 8.02404 82.6443 7.92541 82.8345 7.7352C83.0177 7.53795 83.1163 7.30547 83.1163 7.03777ZM83.1163 9.39778C83.1163 9.13007 83.0247 8.8976 82.8345 8.70034C82.6443 8.50309 82.4118 8.4115 82.123 8.4115C81.8553 8.4115 81.6157 8.51013 81.4255 8.70034C81.2283 8.8976 81.1367 9.13007 81.1367 9.39778C81.1367 9.66548 81.2353 9.89796 81.4255 10.0811C81.6228 10.2713 81.8553 10.3629 82.123 10.3629C82.4118 10.3629 82.6443 10.2713 82.8345 10.0811C83.0177 9.89796 83.1163 9.66548 83.1163 9.39778ZM83.1163 11.7367C83.1163 11.469 83.0247 11.2294 82.8345 11.0392C82.6443 10.842 82.4118 10.7504 82.123 10.7504C81.8553 10.7504 81.6157 10.849 81.4255 11.0392C81.2283 11.2365 81.1367 11.469 81.1367 11.7367C81.1367 12.0255 81.2353 12.265 81.4255 12.4482C81.6228 12.6384 81.8553 12.73 82.123 12.73C82.4118 12.73 82.6443 12.6384 82.8345 12.4482C83.0247 12.258 83.1163 12.0255 83.1163 11.7367ZM83.1163 14.0967C83.1163 13.829 83.0247 13.5965 82.8345 13.4133C82.6443 13.2231 82.4118 13.1315 82.123 13.1315C81.8553 13.1315 81.6157 13.2231 81.4255 13.4133C81.2283 13.5965 81.1367 13.829 81.1367 14.0967C81.1367 14.3644 81.2353 14.6039 81.4255 14.7941C81.6228 14.9914 81.8553 15.0829 82.123 15.0829C82.4118 15.0829 82.6443 14.9843 82.8345 14.7941C83.0177 14.5968 83.1163 14.3644 83.1163 14.0967ZM102.954 8.30583C102.954 9.51049 102.736 10.6165 102.306 11.6239C101.877 12.6313 101.285 13.5049 100.531 14.2376C99.7773 14.9773 98.8826 15.5479 97.854 15.9635C96.8184 16.3792 95.7124 16.5835 94.5289 16.5835C93.3454 16.5835 92.2111 16.3721 91.1896 15.9635C90.1681 15.5479 89.2735 14.9702 88.5197 14.2376C87.7659 13.4979 87.1741 12.6313 86.7444 11.6239C86.3146 10.6165 86.0962 9.51049 86.0962 8.30583C86.0962 7.10117 86.3076 5.96695 86.7303 4.9525C87.153 3.93805 87.7447 3.05745 88.4985 2.32479C89.2523 1.58508 90.147 1.01445 91.1756 0.612898C92.2041 0.211344 93.3242 0 94.5289 0C95.7335 0 96.8184 0.211344 97.847 0.619943C98.8685 1.03559 99.7632 1.61326 100.524 2.34592C101.285 3.08563 101.884 3.95918 102.313 4.97364C102.743 5.98809 102.962 7.10117 102.962 8.29879L102.954 8.30583ZM89.5693 8.30583C89.5693 8.01699 89.4707 7.78452 89.2805 7.59431C89.0832 7.41114 88.8508 7.31251 88.5831 7.31251C88.2942 7.31251 88.0617 7.4041 87.8856 7.59431C87.7095 7.78452 87.6179 8.01699 87.6179 8.30583C87.6179 8.57353 87.7095 8.80601 87.8856 8.98918C88.0617 9.17939 88.2942 9.27097 88.5831 9.27097C88.8508 9.27097 89.0903 9.17939 89.2805 8.98918C89.4778 8.80601 89.5693 8.57353 89.5693 8.30583ZM89.9004 10.5672C89.9004 10.2784 89.8018 10.0389 89.6116 9.85569C89.4143 9.67252 89.1819 9.5739 88.9142 9.5739C88.6465 9.5739 88.4069 9.66548 88.2167 9.85569C88.0195 10.0459 87.9279 10.2784 87.9279 10.5672C87.9279 10.8208 88.0265 11.0463 88.2308 11.2506C88.4351 11.4549 88.6606 11.5535 88.9142 11.5535C89.1819 11.5535 89.4143 11.4549 89.6116 11.2647C89.8089 11.0674 89.9004 10.8349 89.9004 10.5672ZM88.9635 7.00959C89.2312 7.00959 89.4637 6.91096 89.6468 6.72075C89.83 6.52349 89.9286 6.29102 89.9286 6.02331C89.9286 5.73448 89.837 5.49495 89.6468 5.31179C89.4566 5.12862 89.2312 5.02999 88.9635 5.02999C88.6958 5.02999 88.4563 5.12158 88.266 5.31179C88.0688 5.502 87.9772 5.73448 87.9772 6.02331C87.9772 6.27693 88.0758 6.50236 88.266 6.70666C88.4633 6.91096 88.6958 7.00959 88.9635 7.00959ZM91.1474 4.08599C91.1474 3.81829 91.0487 3.57876 90.8585 3.38855C90.6613 3.1913 90.4288 3.09972 90.1611 3.09972C89.8934 3.09972 89.6609 3.19834 89.4778 3.38855C89.2946 3.58581 89.196 3.81829 89.196 4.08599C89.196 4.35369 89.2875 4.58617 89.4778 4.76934C89.668 4.9525 89.8934 5.05113 90.1611 5.05113C90.4288 5.05113 90.6613 4.95955 90.8585 4.76934C91.0558 4.57913 91.1474 4.35369 91.1474 4.08599ZM91.1474 12.5186C91.1474 12.2509 91.0487 12.0184 90.8585 11.8353C90.6613 11.6521 90.4288 11.5535 90.1611 11.5535C89.8934 11.5535 89.6609 11.6451 89.4778 11.8353C89.2946 12.0255 89.196 12.2509 89.196 12.5186C89.196 12.7863 89.2875 13.0259 89.4778 13.2161C89.6609 13.4133 89.8934 13.5049 90.1611 13.5049C90.4288 13.5049 90.6613 13.4063 90.8585 13.202C91.0558 12.9977 91.1474 12.7722 91.1474 12.5186ZM94.5218 12.0889C95.5574 12.0889 96.3958 11.7648 97.0368 11.1097C97.6779 10.4545 98.002 9.52458 98.002 8.30583C98.002 7.08708 97.6779 6.15012 97.0368 5.48791C96.3958 4.8257 95.5574 4.49459 94.5218 4.49459C93.4863 4.49459 92.6056 4.81865 91.9787 5.47382C91.3517 6.12194 91.0417 7.07299 91.0417 8.30583C91.0417 9.53867 91.3517 10.4615 91.9787 11.1097C92.6056 11.7578 93.451 12.0889 94.5218 12.0889ZM93.0988 2.81792C93.0988 2.55022 93.0002 2.3107 92.8099 2.12049C92.6127 1.92323 92.3802 1.83165 92.1125 1.83165C91.8237 1.83165 91.5842 1.93028 91.401 2.12049C91.2178 2.31774 91.1192 2.55022 91.1192 2.81792C91.1192 3.08563 91.2108 3.32515 91.401 3.51536C91.5842 3.71262 91.8237 3.8042 92.1125 3.8042C92.3661 3.8042 92.5986 3.70557 92.7959 3.50127C93.0002 3.29697 93.0988 3.07154 93.0988 2.81792ZM93.0988 13.7867C93.0988 13.519 93.0002 13.2865 92.8099 13.0893C92.6127 12.892 92.3802 12.8004 92.1125 12.8004C91.8237 12.8004 91.5842 12.899 91.401 13.0893C91.2178 13.2865 91.1192 13.519 91.1192 13.7867C91.1192 14.0544 91.2108 14.2869 91.401 14.47C91.5842 14.6603 91.8237 14.7518 92.1125 14.7518C92.3661 14.7518 92.5986 14.6603 92.7959 14.47C93.0002 14.2869 93.0988 14.0544 93.0988 13.7867ZM94.5218 3.19834C94.8107 3.19834 95.0432 3.10676 95.2193 2.91655C95.3954 2.73339 95.487 2.49386 95.487 2.20503C95.487 1.93732 95.3954 1.70484 95.2193 1.52168C95.0432 1.33147 94.8107 1.23989 94.5218 1.23989C94.2682 1.23989 94.0428 1.33851 93.8385 1.52872C93.6342 1.72598 93.5356 1.94437 93.5356 2.19798C93.5356 2.48682 93.6342 2.72634 93.8244 2.90951C94.0217 3.09267 94.2541 3.1913 94.5218 3.1913V3.19834ZM94.5218 15.3366C94.8107 15.3366 95.0432 15.2379 95.2193 15.0477C95.3954 14.8505 95.487 14.618 95.487 14.3503C95.487 14.0826 95.3954 13.8501 95.2193 13.6669C95.0432 13.4767 94.8107 13.3851 94.5218 13.3851C94.2541 13.3851 94.0146 13.4767 93.8244 13.6669C93.6271 13.8501 93.5356 14.0826 93.5356 14.3503C93.5356 14.618 93.6342 14.8575 93.8244 15.0477C94.0217 15.245 94.2541 15.3366 94.5218 15.3366ZM96.9382 3.8042C97.227 3.8042 97.4595 3.70557 97.6356 3.51536C97.8118 3.32515 97.9034 3.08563 97.9034 2.81792C97.9034 2.55022 97.8118 2.3107 97.6356 2.12049C97.4595 1.92323 97.227 1.83165 96.9382 1.83165C96.6705 1.83165 96.431 1.93028 96.2408 2.12049C96.0435 2.31774 95.9519 2.55022 95.9519 2.81792C95.9519 3.07154 96.0506 3.29697 96.2549 3.50127C96.4592 3.70557 96.6846 3.8042 96.9382 3.8042ZM97.9034 13.7867C97.9034 13.519 97.8118 13.2865 97.6356 13.0893C97.4595 12.892 97.227 12.8004 96.9382 12.8004C96.6705 12.8004 96.431 12.899 96.2408 13.0893C96.0435 13.2865 95.9519 13.519 95.9519 13.7867C95.9519 14.0544 96.0506 14.2869 96.2549 14.47C96.4592 14.6603 96.6846 14.7518 96.9382 14.7518C97.227 14.7518 97.4595 14.6603 97.6356 14.47C97.8118 14.2869 97.9034 14.0544 97.9034 13.7867ZM99.8618 4.08599C99.8618 3.81829 99.7632 3.57876 99.573 3.38855C99.3828 3.19834 99.1432 3.09972 98.8755 3.09972C98.6078 3.09972 98.3754 3.19834 98.1922 3.38855C98.002 3.58581 97.9104 3.81829 97.9104 4.08599C97.9104 4.35369 98.009 4.58617 98.1992 4.76934C98.3965 4.9525 98.6149 5.05113 98.8685 5.05113C99.1362 5.05113 99.3757 4.95955 99.5659 4.76934C99.7632 4.57913 99.8548 4.35369 99.8548 4.08599H99.8618ZM99.8618 12.5186C99.8618 12.2509 99.7632 12.0184 99.573 11.8353C99.3757 11.6521 99.1432 11.5535 98.8755 11.5535C98.6078 11.5535 98.3754 11.6451 98.1922 11.8353C98.009 12.0255 97.9104 12.2509 97.9104 12.5186C97.9104 12.7722 98.009 12.9977 98.1992 13.202C98.3965 13.4063 98.6149 13.5049 98.8685 13.5049C99.1362 13.5049 99.3757 13.4063 99.5659 13.2161C99.7561 13.0259 99.8548 12.7863 99.8548 12.5186H99.8618ZM101.081 6.01627C101.081 5.72743 100.982 5.48791 100.792 5.30474C100.594 5.12158 100.362 5.02295 100.094 5.02295C99.8266 5.02295 99.5871 5.11453 99.3968 5.30474C99.1996 5.49495 99.108 5.72743 99.108 6.01627C99.108 6.28397 99.2066 6.52349 99.3968 6.7137C99.5941 6.91096 99.8266 7.00254 100.094 7.00254C100.348 7.00254 100.573 6.90391 100.778 6.69961C100.982 6.49532 101.081 6.26988 101.081 6.01627ZM100.144 11.5535C100.397 11.5535 100.623 11.4549 100.813 11.2506C101.01 11.0463 101.102 10.8208 101.102 10.5672C101.102 10.2784 101.01 10.0389 100.82 9.85569C100.637 9.67252 100.404 9.5739 100.137 9.5739C99.8689 9.5739 99.6293 9.66548 99.4391 9.85569C99.2419 10.0459 99.1503 10.2784 99.1503 10.5672C99.1503 10.8349 99.2489 11.0744 99.4391 11.2647C99.6364 11.4619 99.8689 11.5535 100.137 11.5535H100.144ZM101.44 8.30583C101.44 8.01699 101.348 7.78452 101.158 7.59431C100.968 7.41114 100.735 7.31251 100.447 7.31251C100.179 7.31251 99.9463 7.4041 99.7632 7.59431C99.573 7.78452 99.4814 8.01699 99.4814 8.30583C99.4814 8.57353 99.573 8.80601 99.7632 8.98918C99.9463 9.17939 100.179 9.27097 100.447 9.27097C100.735 9.27097 100.968 9.17939 101.158 8.98918C101.341 8.80601 101.44 8.57353 101.44 8.30583Z" fill="white"/>
<path fill-rule="evenodd" clip-rule="evenodd" d="M117.21 32.4602C117.21 38.1735 112.514 42.8051 106.72 42.8051C106.5 42.8051 106.281 42.7983 106.064 42.7852V35.4545C106.276 35.5022 106.494 35.5275 106.72 35.5275C108.349 35.5275 109.67 34.2094 109.67 32.5833C109.67 30.9574 108.349 29.6392 106.72 29.6392C105.091 29.6392 103.77 30.9574 103.77 32.5833V42.3903V42.8051V49.5939H96.2308V32.4602C96.2308 26.7469 100.927 22.1154 106.72 22.1154C112.514 22.1154 117.21 26.7469 117.21 32.4602ZM22.979 32.8663C22.979 38.5796 18.2827 43.2111 12.4895 43.2111C12.2693 43.2111 12.0507 43.2044 11.8339 43.1912V35.8606C12.0447 35.9083 12.2642 35.9336 12.4895 35.9336C14.1188 35.9336 15.4396 34.6154 15.4396 32.9894C15.4396 31.3634 14.1188 30.0453 12.4895 30.0453C10.8602 30.0453 9.53932 31.3634 9.53932 32.9894V42.7963V43.2111V49.9999H2V32.8663C2 27.153 6.6963 22.5214 12.4895 22.5214C18.2827 22.5214 22.979 27.153 22.979 32.8663ZM31.7149 28.9433C32.4104 28.2593 32.813 27.2713 32.813 26.2834C32.813 25.2954 32.4104 24.3074 31.7149 23.6234C30.9829 22.9014 30.0314 22.5214 29.0433 22.5214C28.0185 22.5214 27.067 22.9014 26.3716 23.6234C25.6761 24.3074 25.2736 25.2954 25.2736 26.2834C25.2736 27.2713 25.6761 28.2213 26.3716 28.9433C27.1036 29.6653 28.0551 30.0453 29.0433 30.0453C30.068 30.0453 31.0196 29.6653 31.7149 28.9433ZM32.813 32.0081H25.2736V50H32.813V32.0081ZM70.8372 32.3351V39.8589H58.3809V32.3351H70.8372ZM56.0864 49.9999V32.8873C56.0864 27.1617 51.3737 22.5214 45.6349 22.5214C39.82 22.5214 35.1074 27.1617 35.1074 32.8873V49.9999H42.6466V42.8789V33.1492V33.1118L42.6468 33.0871L42.6473 33.0518C42.6469 33.0311 42.6466 33.0102 42.6466 32.9894C42.6466 31.3634 43.9675 30.0453 45.5968 30.0453C47.2262 30.0453 48.547 31.3634 48.547 32.9894C48.547 33.0102 48.5468 33.0311 48.5464 33.0518L48.5468 33.0763L48.547 33.1118V49.9999H56.0864ZM94.1109 39.634V22.8485H86.5715V39.4094C86.5715 39.4294 86.5713 39.4494 86.5708 39.4694C86.5713 39.4902 86.5715 39.511 86.5715 39.5319C86.5715 41.1578 85.2506 42.4759 83.6213 42.4759C81.992 42.4759 80.6712 41.1578 80.6712 39.5319C80.6712 39.511 80.6714 39.4902 80.6719 39.4694C80.6714 39.4494 80.6712 39.4294 80.6712 39.4094V39.372V29.6424V22.8485H73.1319V39.634C73.1319 45.3595 77.8445 49.9998 83.6594 49.9998C89.3982 49.9998 94.1109 45.3595 94.1109 39.634Z" fill="#FF2400"/>
</svg>
